<?xml version="1.0" standalone="no"?>
<!DOCTYPE svg PUBLIC "-//W3C//DTD SVG 20010904//EN"
 "http://www.w3.org/TR/2001/REC-SVG-20010904/DTD/svg10.dtd">
<svg version="1.0" xmlns="http://www.w3.org/2000/svg"
 width="700.000000pt" height="700.000000pt" viewBox="0 0 700.000000 700.000000"
 preserveAspectRatio="xMidYMid meet">
<metadata>
Created by potrace 1.11, written by Peter Selinger 2001-2013
</metadata>
<g transform="translate(0.000000,700.000000) scale(0.100000,-0.100000)"
fill="#000000" stroke="none">
<path d="M1399 5823 c-124 -25 -211 -119 -227 -245 -4 -29 -6 -719 -6 -1533 1
-1475 2 -1480 22 -1527 29 -66 93 -131 155 -159 l52 -24 1220 0 c1026 0 1228
2 1269 14 35 11 65 30 106 70 102 101 94 -55 94 1661 0 1357 -2 1500 -17 1550
-27 89 -97 159 -192 190 -54 18 -2389 21 -2476 3z"/>
<path d="M4699 4728 c0 -12 -2 -30 -3 -38 -3 -14 -11 -75 -21 -160 -2 -19 -6
-53 -9 -75 -3 -22 -8 -62 -12 -90 -3 -27 -7 -62 -10 -77 -2 -15 -6 -47 -9 -71
l-4 -44 47 -6 c133 -17 383 -48 430 -53 68 -8 107 -19 105 -31 -1 -5 -4 -34
-7 -64 -3 -30 -10 -88 -16 -129 -6 -41 -12 -95 -15 -120 -3 -25 -7 -56 -9 -70
-3 -14 -8 -54 -11 -90 -4 -36 -8 -72 -10 -80 -2 -8 -6 -42 -10 -75 -3 -33 -8
-71 -10 -85 -2 -14 -11 -83 -20 -155 -9 -71 -18 -141 -20 -155 -2 -14 -7 -50
-10 -80 -6 -56 -13 -115 -20 -160 -2 -14 -9 -69 -15 -124 -7 -54 -13 -106 -15
-115 -1 -9 -6 -45 -10 -81 -3 -36 -8 -72 -10 -80 -2 -8 -7 -43 -10 -77 -3 -34
-8 -71 -10 -83 -2 -12 -7 -48 -10 -81 -4 -33 -8 -68 -10 -77 -1 -9 -6 -46 -10
-82 -3 -36 -8 -72 -10 -80 -2 -8 -7 -44 -10 -80 -7 -67 -12 -83 -23 -76 -4 2
-34 7 -67 10 -33 4 -71 9 -85 11 -14 2 -47 6 -75 10 -27 3 -66 8 -85 10 -38 5
-89 11 -160 20 -25 3 -61 7 -80 10 -19 3 -57 7 -85 10 -27 3 -66 8 -85 11 -37
5 -88 11 -155 19 -22 3 -56 7 -75 10 -19 2 -60 7 -90 11 -30 4 -66 8 -80 10
-14 2 -45 6 -70 9 -25 2 -61 7 -80 9 -19 3 -53 7 -75 10 -22 3 -56 8 -75 10
-19 3 -57 8 -85 11 -104 12 -141 16 -164 20 -14 2 -51 7 -84 10 -32 4 -66 8
-76 10 -10 2 -42 6 -72 10 -30 3 -66 8 -81 11 -19 4 -28 1 -29 -8 0 -7 -2 -22
-4 -33 -2 -11 -7 -42 -10 -70 -3 -27 -7 -66 -10 -85 -2 -19 -7 -53 -9 -75 -3
-22 -8 -60 -11 -85 -29 -231 -29 -218 -8 -223 10 -3 47 -8 83 -12 36 -4 72 -8
80 -10 36 -6 136 -18 141 -17 3 0 35 -3 70 -8 35 -5 123 -17 194 -25 72 -9
231 -29 355 -45 124 -16 248 -32 275 -35 28 -3 61 -8 75 -10 14 -2 50 -7 80
-10 30 -3 66 -8 80 -10 23 -4 47 -7 170 -20 25 -3 59 -8 75 -10 17 -3 53 -7
80 -11 28 -3 61 -7 75 -9 14 -2 54 -7 90 -11 75 -8 80 -9 140 -17 25 -4 65 -9
90 -12 25 -3 63 -8 85 -11 104 -13 148 -8 220 25 58 28 116 88 141 146 13 31
28 111 39 205 3 25 7 61 10 80 2 19 7 60 10 90 4 30 8 62 10 70 2 8 6 44 10
80 3 36 8 76 10 90 2 14 7 43 9 65 3 22 10 78 16 125 15 122 20 159 26 210 3
25 9 74 14 110 5 36 12 88 15 115 3 28 10 84 15 125 5 41 12 99 15 129 4 30 9
63 11 75 2 12 6 44 9 71 10 91 15 129 25 210 6 44 13 96 15 115 2 19 9 73 15
120 6 47 13 103 16 125 2 22 6 56 9 75 3 19 7 53 9 75 3 22 10 76 15 120 17
133 22 168 26 205 2 19 11 89 19 155 9 66 16 123 16 127 0 3 -28 42 -62 86
-35 44 -90 115 -123 157 -33 43 -69 81 -80 85 -11 4 -51 11 -90 14 -38 4 -77
9 -85 11 -8 2 -42 6 -75 10 -33 3 -71 7 -85 10 -14 2 -45 6 -70 9 -25 3 -99
12 -165 21 -66 8 -138 17 -160 20 -22 2 -61 7 -87 11 -45 6 -48 5 -49 -18z"/>
</g>
</svg>
